<?xml version="1.0" standalone="no"?>
<!DOCTYPE svg PUBLIC "-//W3C//DTD SVG 20010904//EN"
 "http://www.w3.org/TR/2001/REC-SVG-20010904/DTD/svg10.dtd">
<svg version="1.0" xmlns="http://www.w3.org/2000/svg"
 width="1429.000000pt" height="1429.000000pt" viewBox="0 0 1429.000000 1429.000000"
 preserveAspectRatio="xMidYMid meet">

<g transform="translate(0.000000,1429.000000) scale(0.100000,-0.100000)"
fill="#000000" stroke="none">
<path d="M0 7145 l0 -7145 7140 0 7140 0 0 7145 0 7145 -7140 0 -7140 0 0
-7145z m7695 3048 c357 -128 691 -431 868 -788 87 -176 138 -356 158 -557 11
-115 13 -124 40 -149 44 -41 33 -107 -21 -129 -87 -36 -148 66 -79 131 l31 29
-12 116 c-48 467 -279 863 -665 1139 -91 65 -263 156 -367 195 -36 13 -58 27
-58 37 0 10 5 13 18 8 9 -4 49 -18 87 -32z m-335 -139 c297 -56 517 -172 731
-384 151 -150 238 -279 313 -468 181 -452 101 -977 -207 -1358 -314 -388 -795
-574 -1291 -499 -118 19 -226 53 -226 72 0 8 -21 23 -47 34 -187 80 -322 169
-452 300 -339 338 -473 821 -356 1279 61 237 176 440 350 615 115 116 231 198
392 275 64 31 114 61 116 70 3 12 35 24 113 43 138 34 139 34 325 36 106 1
183 -4 239 -15z m-1140 -2641 c184 -125 417 -218 633 -253 151 -25 245 -26
254 -5 3 9 18 22 34 31 55 28 113 -9 113 -73 0 -71 -85 -99 -138 -44 -25 26
-34 29 -124 34 -262 15 -554 119 -775 274 -107 76 -147 111 -147 131 0 10 10
7 33 -11 17 -15 70 -52 117 -84z m3174 -889 c21 -21 23 -245 3 -263 -9 -7
-124 -12 -358 -13 l-344 -3 0 -275 0 -275 345 -5 c190 -3 351 -9 358 -13 8 -6
12 -44 12 -132 0 -113 -2 -125 -19 -135 -27 -14 -965 -14 -992 0 -18 10 -19
27 -19 560 0 512 1 550 18 559 11 7 190 11 499 11 425 0 483 -2 497 -16z
m1364 5 c138 -13 184 -31 244 -98 48 -53 69 -105 83 -203 13 -90 17 -88 -172
-88 l-165 0 -34 37 c-19 20 -34 40 -34 44 0 18 -86 29 -265 35 -302 10 -407
-12 -449 -92 -19 -35 -21 -57 -21 -199 0 -228 19 -269 133 -294 67 -14 493
-15 544 -1 24 7 51 27 77 57 l39 46 168 -2 c93 -1 172 -5 176 -7 4 -3 8 -38 8
-78 0 -117 -42 -194 -131 -244 -82 -45 -167 -53 -630 -54 -418 -2 -437 -1
-502 19 -142 45 -199 105 -241 252 -23 78 -23 516 0 605 22 87 38 118 83 159
95 86 156 99 486 107 449 10 486 10 603 -1z m-2560 -7 c9 -7 12 -41 10 -138
l-3 -129 -195 -5 c-107 -3 -201 -9 -207 -13 -10 -6 -13 -100 -13 -410 0 -221
-4 -408 -8 -415 -7 -9 -52 -12 -193 -10 l-184 3 -3 409 c-1 278 -6 413 -13
422 -8 10 -60 14 -208 16 l-196 3 -3 129 c-2 97 1 131 10 138 7 4 279 8 603 8
325 0 596 -4 603 -8z m892 -430 c0 -5 -30 -30 -67 -57 -38 -27 -70 -52 -73
-55 -3 -4 -39 -32 -81 -62 -43 -31 -80 -61 -84 -67 -3 -6 -15 -11 -26 -11 -18
0 -19 8 -19 123 0 68 3 127 7 130 9 10 343 9 343 -1z m-5480 -562 c0 -126 -1
-130 -22 -135 -38 -9 -318 -1 -320 10 -1 10 316 255 332 255 6 0 10 -51 10
-130z m1856 -267 c28 -14 38 -15 41 -5 6 16 53 16 53 -1 0 -7 -7 -23 -16 -35
-18 -26 -55 -29 -91 -5 -24 16 -26 16 -38 0 -18 -24 -45 -22 -45 5 0 24 27 58
46 58 7 0 30 -8 50 -17z m1732 6 c-8 -25 -85 -71 -113 -67 l-29 3 36 38 c28
30 43 37 73 37 23 0 35 -4 33 -11z m-3625 -100 c40 -11 43 -16 25 -54 -13 -29
-14 -29 -73 -14 -31 8 -49 8 -64 0 -34 -19 -25 -39 22 -51 109 -28 130 -42
142 -90 21 -85 -85 -146 -207 -121 -80 17 -86 23 -65 65 l16 35 37 -15 c20 -8
55 -14 77 -12 34 2 42 7 42 23 0 14 -10 22 -35 28 -86 22 -121 39 -136 69 -16
31 -12 71 9 99 34 44 127 61 210 38z m384 -4 c71 -30 105 -80 106 -154 1 -103
-75 -176 -183 -176 -124 1 -210 103 -180 215 28 104 151 159 257 115z m291
-117 l3 -127 77 -3 77 -3 3 -37 3 -38 -130 0 -131 0 0 163 c0 90 3 167 7 171
4 4 25 6 48 4 l40 -3 3 -127z m332 9 c4 -103 8 -121 24 -133 26 -19 49 -18 75
4 19 15 21 29 23 132 l3 115 45 0 45 0 3 -108 c3 -129 -15 -184 -70 -213 -43
-23 -132 -24 -175 -1 -52 27 -67 67 -71 189 -2 59 -2 115 2 123 4 12 17 15 48
13 l43 -3 5 -118z m581 100 c51 -27 55 -42 17 -70 -24 -18 -28 -18 -49 -3 -13
9 -40 16 -60 16 -73 0 -115 -94 -69 -153 29 -37 72 -43 119 -19 l39 20 27 -28
26 -27 -27 -22 c-14 -11 -44 -26 -65 -31 -41 -11 -50 -24 -24 -34 22 -8 19
-53 -4 -66 -11 -5 -36 -10 -55 -10 -29 0 -36 4 -36 20 0 16 7 20 30 20 17 0
30 5 30 10 0 6 -9 10 -21 10 -16 0 -19 4 -14 20 5 16 -2 23 -40 41 -131 62
-135 241 -7 309 52 27 128 26 183 -3z m388 3 c85 -43 119 -129 86 -216 -43
-113 -203 -147 -299 -64 -18 17 -39 43 -46 60 -18 44 -8 130 20 170 47 65 162
90 239 50z m449 -22 l3 -38 -85 0 c-85 0 -86 0 -86 -25 0 -23 3 -24 73 -27
l72 -3 3 -37 3 -38 -76 0 -76 0 3 -27 c3 -28 3 -28 91 -31 l87 -3 0 -34 0 -35
-135 0 -135 0 0 163 c0 90 3 167 7 171 4 3 61 5 127 4 l121 -3 3 -37z m317 28
c33 -14 34 -16 24 -45 -12 -34 -18 -36 -69 -21 -47 14 -90 4 -90 -20 0 -19 10
-23 102 -45 48 -12 78 -49 78 -95 0 -93 -112 -133 -248 -89 -30 10 -33 14 -27
37 11 46 23 53 57 36 39 -20 122 -15 126 8 3 13 -13 22 -69 38 -79 24 -119 56
-119 95 0 40 25 80 62 98 41 21 127 22 173 3z m573 -28 l3 -38 -50 0 -51 0 0
-130 0 -130 -45 0 -45 0 0 130 0 130 -55 0 -55 0 0 33 c0 19 3 37 7 41 4 3 70
5 147 4 l141 -3 3 -37z m340 0 l3 -38 -85 0 c-85 0 -86 0 -86 -25 0 -24 2 -25
75 -25 l75 0 0 -40 0 -40 -76 0 -75 0 3 -27 c3 -28 3 -28 91 -31 l87 -3 0 -34
0 -35 -135 0 -135 0 0 163 c0 90 3 167 7 171 4 3 61 5 127 4 l121 -3 3 -37z
m363 19 c51 -27 55 -42 17 -70 -24 -18 -28 -18 -49 -3 -13 9 -40 16 -60 16
-73 0 -115 -94 -69 -153 29 -37 72 -43 119 -19 l39 20 27 -28 26 -27 -27 -22
c-56 -44 -137 -49 -212 -14 -89 42 -115 175 -51 257 52 66 159 85 240 43z
m235 -13 c18 -20 50 -58 71 -85 21 -26 41 -48 45 -49 4 0 8 37 10 83 l3 82 40
0 40 0 3 -167 2 -168 -38 0 c-37 0 -43 5 -111 86 l-71 86 0 -86 0 -86 -50 0
-50 0 0 163 c0 90 3 167 7 170 3 4 20 7 36 7 21 0 39 -10 63 -36z m581 15 c58
-28 86 -69 91 -136 5 -64 -9 -103 -54 -143 -96 -83 -256 -49 -299 64 -59 155
106 291 262 215z m281 -111 l3 -127 77 -3 77 -3 3 -37 3 -38 -130 0 -131 0 0
163 c0 90 3 167 7 171 4 4 25 6 48 4 l40 -3 3 -127z m491 112 c85 -43 119
-129 86 -216 -43 -113 -203 -147 -299 -64 -18 17 -39 43 -46 60 -18 44 -8 130
20 170 47 65 162 90 239 50z m451 -2 c52 -26 56 -43 18 -71 -24 -18 -28 -18
-49 -3 -36 25 -95 21 -124 -9 -50 -49 -22 -145 45 -160 52 -11 69 0 72 53 l3
47 40 0 40 0 3 -67 c3 -61 1 -68 -21 -83 -70 -45 -185 -40 -246 11 -93 78 -68
241 44 290 48 21 125 17 175 -8z m238 -150 l2 -168 -45 0 -45 0 0 163 c0 90 3
167 7 171 4 4 23 6 43 4 l35 -3 3 -167z m355 158 c18 -7 40 -22 49 -33 17 -19
17 -20 -13 -42 -28 -21 -32 -21 -54 -7 -37 24 -91 20 -120 -9 -34 -33 -34 -93
-1 -132 30 -34 92 -39 125 -9 21 19 22 19 52 -10 l30 -29 -25 -22 c-26 -22
-84 -43 -121 -43 -111 0 -197 97 -181 205 8 52 53 110 101 131 39 17 117 17
158 0z m343 6 c10 -6 35 -60 135 -289 l18 -43 -48 0 c-45 0 -50 3 -61 30 -12
29 -14 30 -85 30 -71 0 -73 -1 -85 -30 -11 -28 -16 -30 -61 -30 l-49 0 26 58
c14 31 46 104 72 162 25 58 51 108 57 112 5 4 24 8 40 8 17 0 35 -4 41 -8z
m440 -7 l35 -14 -16 -32 c-13 -24 -21 -30 -38 -25 -57 16 -93 17 -111 3 -28
-21 -13 -34 64 -57 39 -12 79 -31 90 -42 37 -40 21 -111 -33 -144 -40 -24
-145 -24 -200 -1 l-37 16 16 34 c17 35 17 35 50 21 39 -16 120 -19 129 -4 12
19 -14 37 -80 55 -74 20 -105 49 -105 99 0 65 55 105 148 106 29 0 68 -7 88
-15z"/>
<path d="M8682 8668 c-18 -18 -14 -46 7 -58 25 -13 48 -4 56 21 12 38 -35 65
-63 37z"/>
<path d="M7005 10029 c-55 -4 -120 -14 -145 -22 -51 -15 -46 16 -40 -235 3
-122 1 -134 -16 -146 -18 -13 -333 -199 -482 -285 -53 -31 -70 -46 -63 -54 5
-7 43 -30 83 -51 l73 -39 205 115 c113 64 206 115 207 114 2 -2 33 -592 33
-633 0 -21 -5 -23 -55 -23 -68 0 -135 -29 -174 -77 -120 -146 -13 -357 180
-356 l58 1 5 -42 c3 -22 12 -205 21 -406 8 -201 17 -393 18 -427 2 -35 8 -68
15 -75 17 -17 254 -23 368 -8 270 34 527 157 728 350 82 78 184 203 198 241 4
9 0 139 -7 290 -8 151 -19 425 -25 609 -17 536 -24 633 -48 672 -33 52 -179
190 -267 253 -250 178 -557 261 -870 234z m-157 -1395 c19 -13 22 -24 22 -78
0 -68 -12 -88 -61 -100 -37 -8 -92 30 -100 69 -17 91 68 159 139 109z"/>
<path d="M7147 7143 c-4 -3 -7 -17 -7 -29 0 -17 7 -25 27 -30 33 -9 58 19 42
47 -9 18 -49 26 -62 12z"/>
<path d="M3816 5069 c-55 -65 -18 -154 64 -154 82 0 119 89 64 154 -20 25 -34
31 -64 31 -30 0 -44 -6 -64 -31z"/>
<path d="M5407 5080 c-51 -40 -43 -126 15 -156 61 -32 128 13 128 86 0 75 -84
116 -143 70z"/>
<path d="M8255 5074 c-48 -52 -22 -144 44 -159 63 -14 121 49 106 114 -15 68
-104 95 -150 45z"/>
<path d="M9037 5080 c-51 -40 -43 -126 15 -156 61 -32 128 13 128 86 0 75 -84
116 -143 70z"/>
<path d="M10506 5036 c-22 -53 -21 -56 20 -56 32 0 35 2 28 23 -3 12 -12 33
-19 47 l-13 24 -16 -38z"/>
</g>
</svg>
