<?xml version="1.0" standalone="no"?>
<!DOCTYPE svg PUBLIC "-//W3C//DTD SVG 20010904//EN"
 "http://www.w3.org/TR/2001/REC-SVG-20010904/DTD/svg10.dtd">
<svg version="1.0" xmlns="http://www.w3.org/2000/svg"
 width="1973.000000pt" height="968.000000pt" viewBox="0 0 1973.000000 968.000000"
 preserveAspectRatio="xMidYMid meet">

<g transform="translate(0.000000,968.000000) scale(0.100000,-0.100000)"
fill="#000000" stroke="none">
<path d="M6268 7870 c-173 -31 -293 -94 -413 -214 -79 -79 -98 -105 -143 -196
-73 -149 -93 -232 -99 -416 -7 -178 6 -280 48 -409 67 -203 196 -358 369 -445
237 -119 605 -117 830 6 75 41 137 111 145 165 3 24 5 172 3 329 l-3 285 -297
3 -298 2 0 -65 0 -65 183 -2 182 -3 0 -230 c0 -268 1 -267 -99 -314 -135 -66
-323 -59 -473 17 -219 112 -361 435 -340 776 20 318 168 547 400 618 55 16 87
19 160 16 153 -7 230 -55 347 -213 37 -51 76 -95 85 -99 9 -3 35 -6 57 -6 59
0 98 42 98 107 0 130 -173 281 -385 338 -70 18 -289 28 -357 15z"/>
<path d="M12105 7864 c-209 -45 -389 -194 -494 -409 -169 -346 -124 -812 105
-1089 215 -260 597 -340 894 -185 157 81 254 183 340 354 65 131 90 235 97
405 10 265 -52 484 -190 665 -97 128 -254 229 -402 260 -88 19 -259 18 -350
-1z m280 -139 c186 -49 326 -208 386 -440 39 -151 36 -437 -6 -600 -77 -295
-336 -476 -588 -410 -90 23 -136 52 -218 134 -87 87 -133 170 -171 311 -20 75
-23 108 -23 280 0 170 3 207 23 285 36 142 88 240 170 317 129 122 272 163
427 123z"/>
<path d="M7567 7849 c-54 -5 -113 -16 -132 -24 l-35 -14 0 -835 0 -836 109 0
c104 0 109 1 115 23 3 12 6 178 6 368 0 322 1 347 18 362 26 24 73 21 112 -5
23 -16 98 -126 251 -371 119 -191 223 -354 229 -362 10 -12 40 -15 136 -15
123 0 124 0 124 23 0 14 -100 173 -245 389 -134 202 -246 371 -247 377 -2 6
27 22 64 35 90 32 152 69 215 129 91 86 133 186 133 317 0 214 -118 366 -326
421 -93 24 -365 34 -527 18z m417 -149 c146 -55 219 -199 194 -383 -11 -84
-40 -137 -104 -196 -86 -78 -203 -111 -376 -103 l-68 3 0 349 0 349 33 4 c17
3 84 4 147 2 89 -2 128 -8 174 -25z"/>
<path d="M10510 7854 c-131 -15 -198 -27 -218 -40 l-22 -15 2 -827 3 -827 112
-3 113 -3 2 363 3 363 60 -1 c102 -2 295 15 359 32 105 27 205 81 272 148 104
104 140 209 131 375 -5 82 -10 104 -42 168 -63 128 -170 209 -326 249 -62 15
-364 28 -449 18z m255 -133 c83 -13 164 -45 211 -85 83 -71 122 -196 104 -328
-24 -164 -127 -263 -314 -299 -60 -11 -236 -12 -254 -1 -9 7 -12 85 -10 358
l3 349 35 6 c54 10 159 10 225 0z"/>
<path d="M8753 7843 c-20 -7 -18 -1272 1 -1364 38 -178 165 -304 359 -356 87
-24 308 -23 397 1 195 53 326 197 351 384 6 47 9 320 7 702 l-3 625 -65 8
c-36 4 -75 5 -87 2 l-22 -5 -3 -653 c-4 -741 0 -704 -89 -801 -66 -72 -127
-98 -245 -104 -191 -9 -298 62 -356 237 -21 64 -22 81 -26 691 -3 463 -7 627
-15 632 -13 8 -185 9 -204 1z"/>
<path d="M16080 5450 c-207 -20 -431 -80 -580 -155 -251 -126 -466 -336 -598
-585 -102 -191 -150 -354 -199 -665 -24 -156 -28 -209 -28 -400 0 -165 5 -247
18 -330 119 -724 499 -1242 1044 -1424 50 -17 174 -45 275 -62 308 -52 522
-41 773 42 568 188 1097 700 1335 1294 32 78 72 197 67 200 -1 1 -191 -54
-422 -121 -231 -68 -481 -141 -555 -163 -74 -21 -191 -56 -260 -76 -69 -21
-201 -59 -294 -86 -195 -57 -167 -62 -296 52 -146 128 -293 356 -349 542 -77
252 -71 547 15 789 14 40 31 78 38 84 6 6 36 18 66 26 30 9 228 66 440 128
468 136 811 235 1028 297 89 26 161 50 160 54 -2 4 -35 34 -74 67 -245 204
-609 377 -944 447 -202 43 -487 62 -660 45z"/>
<path d="M9965 5430 c-829 -6 -799 -4 -928 -59 -124 -53 -260 -167 -340 -285
-58 -85 -107 -214 -123 -320 -8 -50 -14 -99 -14 -108 0 -17 34 -18 585 -18
l585 0 0 -1384 c0 -762 4 -1387 9 -1390 4 -3 48 1 97 8 307 47 537 251 637
563 22 68 22 72 25 1136 l3 1067 222 0 c257 0 328 9 436 50 283 109 475 366
506 678 6 56 5 62 -12 63 -62 4 -1034 3 -1688 -1z"/>
<path d="M13227 5434 c-1 -2 -34 -4 -74 -5 -269 -9 -583 -113 -832 -277 -400
-264 -684 -686 -770 -1147 -26 -140 -29 -178 -30 -335 -3 -388 89 -711 290
-1016 68 -103 75 -112 144 -193 241 -280 593 -487 955 -561 156 -32 206 -35
545 -35 294 0 314 1 390 23 260 75 458 269 544 533 23 70 44 219 33 231 -4 4
-302 9 -662 10 -639 3 -657 4 -733 25 -97 28 -225 87 -308 143 -91 62 -216
194 -277 293 -88 141 -117 127 259 127 340 1 367 2 464 27 230 57 442 251 530
486 25 67 60 250 52 271 -3 8 -190 11 -686 11 -520 -1 -681 2 -681 11 0 7 15
39 34 73 141 249 352 412 626 483 59 16 120 21 290 24 430 8 460 10 535 34
220 70 389 218 486 423 41 88 71 214 67 284 l-3 58 -593 0 c-326 1 -594 0
-595 -1z"/>
<path d="M1542 3963 l3 -1468 32 -92 c55 -158 131 -270 250 -368 119 -99 310
-175 437 -175 l51 0 -1 663 c0 364 1 784 4 934 l5 272 61 -77 c33 -42 87 -111
119 -152 32 -41 66 -84 76 -95 9 -11 44 -56 78 -100 53 -69 199 -255 540 -689
l86 -109 26 30 c24 28 526 665 581 738 14 18 79 101 145 185 66 84 139 178
163 209 24 31 47 57 52 59 4 2 7 -411 7 -923 -1 -510 1 -932 5 -937 4 -7 29
-9 70 -5 361 35 664 341 694 702 3 33 6 692 7 1464 l2 1403 -65 -6 c-97 -9
-181 -32 -264 -71 -155 -73 -190 -109 -590 -605 -109 -135 -205 -254 -215
-265 -9 -11 -82 -101 -161 -199 -80 -99 -176 -218 -215 -266 -38 -47 -105
-129 -148 -183 -43 -53 -82 -99 -87 -102 -5 -3 -59 57 -120 132 -198 246 -293
363 -430 533 -74 92 -242 300 -373 462 -252 313 -316 382 -416 447 -106 68
-274 121 -386 121 l-25 0 2 -1467z"/>
<path d="M6880 5415 c-382 -60 -690 -214 -965 -484 -252 -247 -431 -570 -499
-901 -42 -208 -45 -511 -6 -725 97 -536 470 -1030 955 -1265 619 -300 1349
-208 1873 237 l52 45 0 859 0 859 -427 0 c-251 0 -455 -4 -493 -11 -215 -35
-425 -191 -537 -399 -54 -100 -93 -244 -93 -343 l0 -37 390 0 389 0 -2 -254
c-1 -140 -5 -257 -7 -259 -7 -6 -161 -55 -195 -61 -16 -4 -41 -9 -55 -12 -14
-3 -74 -5 -135 -5 -445 -1 -826 301 -941 746 -22 85 -26 122 -26 245 0 125 4
159 27 245 84 321 309 573 611 686 124 47 157 51 504 58 303 7 342 10 410 30
117 34 213 87 319 176 45 38 142 168 177 238 40 79 69 182 79 280 l6 67 -663
-1 c-494 -1 -685 -5 -748 -14z"/>
</g>
</svg>
